<?xml version="1.0" encoding="UTF-8" standalone="no"?>
<svg
   xmlns:dc="http://purl.org/dc/elements/1.1/"
   xmlns:cc="http://creativecommons.org/ns#"
   xmlns:rdf="http://www.w3.org/1999/02/22-rdf-syntax-ns#"
   xmlns:svg="http://www.w3.org/2000/svg"
   xmlns="http://www.w3.org/2000/svg"
   xmlns:sodipodi="http://sodipodi.sourceforge.net/DTD/sodipodi-0.dtd"
   xmlns:inkscape="http://www.inkscape.org/namespaces/inkscape"
   width="200"
   height="200"
   fill="#000000"
   version="1.1"
   x="0px"
   y="0px"
   viewBox="0 0 100 100"
   enable-background="new 0 0 100 100"
   xml:space="preserve"
   id="svg4188"
   inkscape:version="0.91 r13725"
   sodipodi:docname="logo.svg"><metadata
     id="metadata4200"><rdf:RDF><cc:Work
         rdf:about=""><dc:format>image/svg+xml</dc:format><dc:type
           rdf:resource="http://purl.org/dc/dcmitype/StillImage" /><dc:title /></cc:Work></rdf:RDF></metadata><defs
     id="defs4198" /><sodipodi:namedview
     pagecolor="#ffffff"
     bordercolor="#666666"
     borderopacity="1"
     objecttolerance="10"
     gridtolerance="10"
     guidetolerance="10"
     inkscape:pageopacity="0"
     inkscape:pageshadow="2"
     inkscape:window-width="1920"
     inkscape:window-height="981"
     id="namedview4196"
     showgrid="false"
     inkscape:zoom="0.495"
     inkscape:cx="-137.08322"
     inkscape:cy="150.3883"
     inkscape:window-x="0"
     inkscape:window-y="28"
     inkscape:window-maximized="1"
     inkscape:current-layer="svg4188" /><path
     inkscape:connector-curvature="0"
     id="path4192"
     d="m 98.657374,36.788172 c -0.632,-3.197 -4.878001,-5.282 -6.098001,-8.223 -1.242,-2.992 0.273,-7.465 -1.507,-10.125 -1.794,-2.679 -6.513,-2.983 -8.785,-5.255 -2.271,-2.272 -2.575,-6.9900003 -5.256,-8.7850003 -2.66,-1.78 -7.132,-0.266 -10.124,-1.507 -2.941,-1.219 -5.025,-5.464 -8.222,-6.097 -3.104,-0.613 -6.647,2.50000002 -9.929,2.50000002 -3.282,0 -6.825,-3.11300002 -9.929,-2.50000002 -3.196,0.632 -5.281,4.878 -8.222,6.097 -2.993,1.242 -7.465,-0.273 -10.125,1.507 -2.68,1.794 -2.983,6.5130003 -5.255,8.7850003 -2.273,2.272 -6.9909997,2.576 -8.7859993,5.255 -1.781,2.66 -0.265,7.133 -1.506,10.125 -1.22,2.941 -5.46499996,5.027 -6.097,8.223 -0.613,3.102 2.5,6.647 2.5,9.929 0,3.283 -3.113,6.827 -2.5,9.929 0.63200004,3.196 4.877,5.281 6.097,8.223 1.241,2.993 -0.274,7.465 1.506,10.125 1.7939996,2.681 6.5139993,2.982 8.7859993,5.255 2.272,2.274 2.575,6.992 5.256,8.786 2.659,1.78 7.132,0.267 10.125,1.507 2.94,1.219 5.025,5.464 8.222,6.096 3.104,0.614 6.647,-2.499 9.929,-2.499 3.281,0 6.825,3.113 9.93,2.499 3.196,-0.632 5.279,-4.877 8.221,-6.096 2.992,-1.242 7.464,0.272 10.126,-1.507 2.679,-1.796 2.982,-6.514 5.255,-8.786 2.271,-2.272 6.99,-2.576 8.784,-5.255 1.78,-2.66 0.265,-7.132 1.507,-10.125 1.22,-2.941 5.466001,-5.026 6.098001,-8.223 0.614,-3.104 -2.501001,-6.646 -2.501001,-9.929 0,-3.283 3.114001,-6.827 2.500001,-9.929 z m -22.089001,-20.919 c 0.819,-0.103 2.312,-0.069 3.306,-0.458 0.027,0.029 0.048,0.062 0.076,0.091 1.022,1.022 2.258,1.707 3.488,2.27 -1.314,0.876 -2.378,2.474 -2.845,3.809 -0.064,0.184 -0.119,0.359 -0.166,0.527 -1.785,-2.296 -3.808,-4.398 -6.042,-6.257 0.601,0.109 1.322,0.127 2.183,0.018 z m -13.434,-11.4900003 c 0.748,0.608 1.567,1.156 2.498,1.542 1.418,0.588 2.89,0.745 4.319,0.786 -1.012,1.34 -1.455,3.3870003 -1.38,4.9080003 0.003,0.081 0.012,0.151 0.018,0.229 -3.352,-1.9130001 -7.006,-3.3540003 -10.874,-4.2390003 1.533,-0.726 3.269,-2.818 5.419,-3.226 z M 2.6723737,57.138172 c -0.332,-0.414 -0.577,-0.805 -0.64,-1.129 -0.138,-0.696 0.494,-2.198 1.001,-3.406 0.731,-1.744 1.56,-3.721 1.56,-5.886 0,-1.42 -0.367,-2.75 -0.819,-3.994 0.895,0.199 2.039,-0.072 3.4359996,-1.117 4.0959997,-3.059 -3.1499996,-2.993 -4.4789996,-5.382 0.449,-0.549 1.042,-1.139 1.6,-1.691 1.316,-1.3 2.8069996,-2.775 3.6109996,-4.711 0.817,-1.972 0.809,-4.093 0.801,-5.965 -0.002,-0.671 -0.004,-1.381 0.04,-2.01 0.956,1.002 2.7209997,1.491 4.0149997,1.466 4.056,-0.074 1.901,-2.978 1.711,-5.768 1.069,-0.523 2.123,-1.152 3.013,-2.042 1.5,-1.5 2.298,-3.457 3.002,-5.184 0.209,-0.5150001 0.431,-1.0540003 0.66,-1.5470003 0.576,1.1530002 1.899,2.1320003 3.004,2.5560003 3.721,1.428 2.809,-2.0310003 3.681,-4.6330003 1.32,-0.058 2.669,-0.234 3.973,-0.774 1.937,-0.802 3.412,-2.294 4.713,-3.61 0.266,-0.271 0.542,-0.549 0.819,-0.817 0.155,1.279 0.989,2.643 1.843,3.441 3.087,2.885 3.478,-1.101 5.467,-3.201 1.261,0.461 2.61,0.839 4.053,0.839 1.962,0 3.76,-0.682 5.379,-1.354 -0.395,1.469 -0.087,3.331 0.493,4.583 0.275,0.594 0.553,1.03 0.832,1.35 -2.181,-0.368 -4.418,-0.569 -6.704,-0.569 -22.166,0 -40.1339997,17.9700003 -40.1339997,40.1340003 0,4.017 0.597,7.892 1.6959997,11.552 -2.4179997,-0.346 -5.5679993,-0.595 -7.6269993,-1.131 z m 6.5629996,16.137 c -0.029,-0.035 -0.068,-0.069 -0.091,-0.104 -0.412,-0.614 -0.405,-2.195 -0.4,-3.59 0.007,-1.872 0.016,-3.996 -0.802,-5.968 -0.071,-0.171 -0.173,-0.319 -0.254,-0.484 1.452,0.082 2.9139997,-0.264 4.0509997,-0.836 1.37,3.25 3.164,6.274 5.298,9.023 -2.478,0.501 -5.245,1.811 -7.8019997,1.959 z m 15.7609997,13.436 c -0.896,-0.006 -2.188,-0.05 -2.711,-0.4 -0.631,-0.423 -1.232,-1.896 -1.761,-3.194 -0.328,-0.806 -0.684,-1.662 -1.115,-2.497 1.215,-0.441 2.668,-1.363 4.509,-2.374 2.051,1.617 4.262,3.035 6.608,4.233 -1.415,1.426 -3.267,3.402 -5.53,4.232 z m 23.741,4.151 c -2.167,0 -4.142,0.829 -5.886,1.561 -1.193,0.5 -2.424,1.019 -3.198,1.019 -0.078,0 -0.149,-0.006 -0.209,-0.018 -0.718,-0.142 -1.75,-1.148 -2.693,-2.102 1.68,-0.96 3.47,-2.838 5.017,-5.086 2.265,0.396 4.589,0.615 6.97,0.615 0.206,0 0.409,-0.012 0.616,-0.016 0.208,1.346 0.584,2.536 1.471,4.287 -0.677,-0.148 -1.368,-0.26 -2.088,-0.26 z m 0,-7.093 c -20.463,0 -37.051,-16.591 -37.051,-37.052 0,-20.462 16.587,-37.0510001 37.051,-37.0510001 20.463,0 37.05,16.5880001 37.05,37.0510001 0,20.461 -16.587,37.052 -37.05,37.052 z" /><path
     sodipodi:type="star"
     style="fill:none;stroke:#000000;stroke-width:5;stroke-miterlimit:4;stroke-dasharray:none;stroke-opacity:1"
     id="path4216"
     sodipodi:sides="21"
     sodipodi:cx="-324.24243"
     sodipodi:cy="-112.62626"
     sodipodi:r1="72.950668"
     sodipodi:r2="69.027634"
     sodipodi:arg1="1.0471976"
     sodipodi:arg2="1.1967973"
     inkscape:flatsided="false"
     inkscape:rounded="0"
     inkscape:randomized="0"
     d="m -287.7671,-49.449125 -11.25671,1.078881 -8.98557,6.865629 -11.07462,-2.287025 -10.61005,3.912064 -9.90848,-5.449718 -11.29178,0.610896 -7.86194,-8.12818 -10.97018,-2.744554 -5.11684,-10.084417 -9.67383,-5.856138 -1.91708,-11.14461 -7.51793,-8.447378 1.45303,-11.214555 -4.69402,-10.28803 4.69402,-10.28804 -1.45303,-11.21455 7.51793,-8.44738 1.91708,-11.14461 9.67384,-5.85614 5.11683,-10.08441 10.97019,-2.74456 7.86194,-8.12817 11.29178,0.61089 9.90848,-5.44971 10.61006,3.91206 11.0746,-2.28702 8.98558,6.86563 11.25671,1.07888 6.56269,9.20916 10.43859,4.34892 3.55669,10.73441 8.69297,7.23254 0.23465,11.30586 6.17494,9.47351 -3.10824,10.87274 3.10824,10.87273 -6.17494,9.47352 -0.23465,11.305853 -8.69298,7.232544 -3.55668,10.734403 -10.4386,4.348923 z" /><flowRoot
     xml:space="preserve"
     id="flowRoot4261"
     style="font-style:normal;font-weight:normal;font-size:40px;line-height:125%;font-family:sans-serif;letter-spacing:0px;word-spacing:0px;fill:#000000;fill-opacity:1;stroke:none;stroke-width:1px;stroke-linecap:butt;stroke-linejoin:miter;stroke-opacity:1"
     transform="matrix(0.71445992,-0.41249362,0.49538673,0.85803499,282.12818,-359.28923)"><flowRegion
       id="flowRegion4263"><rect
         id="rect4265"
         width="396.9697"
         height="144.44444"
         x="-647.47473"
         y="50.505051" /></flowRegion><flowPara
       id="flowPara4267"
       style="font-style:normal;font-variant:normal;font-weight:500;font-stretch:normal;font-family:serif;-inkscape-font-specification:'serif Medium'">ClassApp</flowPara></flowRoot><flowRoot
     xml:space="preserve"
     id="flowRoot4261-4"
     style="font-style:normal;font-weight:normal;font-size:40px;line-height:125%;font-family:sans-serif;letter-spacing:0px;word-spacing:0px;fill:#000000;fill-opacity:1;stroke:none;stroke-width:1px;stroke-linecap:butt;stroke-linejoin:miter;stroke-opacity:1"
     transform="matrix(0.82498725,0,0,0.99077345,339.84289,-214.43948)"><flowRegion
       id="flowRegion4263-5"><rect
         id="rect4265-20"
         width="396.9697"
         height="144.44444"
         x="-647.47473"
         y="50.505051" /></flowRegion><flowPara
       id="flowPara4267-2"
       style="font-style:normal;font-variant:normal;font-weight:500;font-stretch:normal;font-family:serif;-inkscape-font-specification:'serif Medium'">ClassApp</flowPara></flowRoot><flowRoot
     xml:space="preserve"
     id="flowRoot4202"
     style="fill:black;stroke:none;stroke-opacity:1;stroke-width:1px;stroke-linejoin:miter;stroke-linecap:butt;fill-opacity:1;font-family:sans-serif;font-style:normal;font-weight:normal;font-size:40px;line-height:125%;letter-spacing:0px;word-spacing:0px"><flowRegion
       id="flowRegion4204"><rect
         id="rect4206"
         width="143.43434"
         height="163.63637"
         x="-580.80811"
         y="47.474747" /></flowRegion><flowPara
       id="flowPara4208"></flowPara></flowRoot><flowRoot
     xml:space="preserve"
     id="flowRoot4261-7"
     style="font-style:normal;font-weight:normal;font-size:40px;line-height:125%;font-family:sans-serif;letter-spacing:0px;word-spacing:0px;fill:#000000;fill-opacity:1;stroke:none;stroke-width:1px;stroke-linecap:butt;stroke-linejoin:miter;stroke-opacity:1"
     transform="matrix(4.1893094,-1.1225221,1.3480997,5.0311766,2254.8684,-1045.7604)"><flowRegion
       id="flowRegion4263-7"><rect
         id="rect4265-2"
         width="396.9697"
         height="144.44444"
         x="-647.47473"
         y="50.505051" /></flowRegion><flowPara
       id="flowPara4267-6"
       style="font-style:normal;font-variant:normal;font-weight:bold;font-stretch:normal;font-family:serif;-inkscape-font-specification:'serif Bold'">c</flowPara></flowRoot><path
     sodipodi:type="star"
     style="fill:none;stroke:#000000;stroke-width:5;stroke-miterlimit:4;stroke-dasharray:none;stroke-opacity:1"
     id="path4216-0"
     sodipodi:sides="21"
     sodipodi:cx="-314.72876"
     sodipodi:cy="79.292931"
     sodipodi:r1="72.950668"
     sodipodi:r2="69.027634"
     sodipodi:arg1="1.0471976"
     sodipodi:arg2="1.1967973"
     inkscape:flatsided="false"
     inkscape:rounded="0"
     inkscape:randomized="0"
     d="m -278.25343,142.47006 -11.25671,1.07889 -8.98557,6.86562 -11.07462,-2.28702 -10.61004,3.91206 -9.90849,-5.44971 -11.29177,0.61089 -7.86195,-8.12818 -10.97018,-2.74455 -5.11684,-10.08442 -9.67383,-5.85614 -1.91708,-11.14461 -7.51793,-8.44738 1.45303,-11.214551 -4.69402,-10.288032 4.69402,-10.288038 -1.45302,-11.214549 7.51792,-8.447383 1.91708,-11.144604 9.67384,-5.856142 5.11684,-10.084412 10.97018,-2.744556 7.86194,-8.128176 11.29178,0.610895 9.90848,-5.4497151 10.61006,3.9120661 11.0746,-2.2870244 8.98558,6.8656324 11.25671,1.078879 6.56269,9.209158 10.4386,4.348919 3.55668,10.734409 8.69297,7.232539 0.23465,11.30586 6.17494,9.473516 -3.10824,10.872736 3.10824,10.87273 -6.17494,9.473522 -0.23465,11.305851 -8.69298,7.23255 -3.55668,10.7344 -10.4386,4.34892 z"
     transform="matrix(0.96592583,-0.25881905,0.25881905,0.96592583,-31.261048,-78.86537)" /><flowRoot
     xml:space="preserve"
     id="flowRoot4261-7-9"
     style="font-style:normal;font-weight:normal;font-size:40px;line-height:125%;font-family:sans-serif;letter-spacing:0px;word-spacing:0px;fill:#000000;fill-opacity:1;stroke:none;stroke-width:1px;stroke-linecap:butt;stroke-linejoin:miter;stroke-opacity:1"
     transform="matrix(4.1893095,-1.1225221,1.3480997,5.0311767,2436.9948,-1038.8739)"><flowRegion
       id="flowRegion4263-7-4"><rect
         id="rect4265-2-5"
         width="396.9697"
         height="144.44444"
         x="-647.47473"
         y="50.505051" /></flowRegion><flowPara
       id="flowPara4267-6-1"
       style="font-style:normal;font-variant:normal;font-weight:bold;font-stretch:normal;font-family:serif;-inkscape-font-specification:'serif Bold'">c</flowPara></flowRoot><path
     sodipodi:type="star"
     style="fill:#aa0000;fill-opacity:1;stroke:#000000;stroke-width:5;stroke-miterlimit:4;stroke-dasharray:none;stroke-opacity:1"
     id="path4216-0-0"
     sodipodi:sides="21"
     sodipodi:cx="-314.72876"
     sodipodi:cy="79.292931"
     sodipodi:r1="72.950668"
     sodipodi:r2="69.027634"
     sodipodi:arg1="1.0471976"
     sodipodi:arg2="1.1967973"
     inkscape:flatsided="false"
     inkscape:rounded="0"
     inkscape:randomized="0"
     d="m -278.25343,142.47006 -11.25671,1.07889 -8.98557,6.86562 -11.07462,-2.28702 -10.61004,3.91206 -9.90849,-5.44971 -11.29177,0.61089 -7.86195,-8.12818 -10.97018,-2.74455 -5.11684,-10.08442 -9.67383,-5.85614 -1.91708,-11.14461 -7.51793,-8.44738 1.45303,-11.214551 -4.69402,-10.288032 4.69402,-10.288038 -1.45302,-11.214549 7.51792,-8.447383 1.91708,-11.144604 9.67384,-5.856142 5.11684,-10.084412 10.97018,-2.744556 7.86194,-8.128176 11.29178,0.610895 9.90848,-5.4497151 10.61006,3.9120661 11.0746,-2.2870244 8.98558,6.8656324 11.25671,1.078879 6.56269,9.209158 10.4386,4.348919 3.55668,10.734409 8.69297,7.232539 0.23465,11.30586 6.17494,9.473516 -3.10824,10.872736 3.10824,10.87273 -6.17494,9.473522 -0.23465,11.305851 -8.69298,7.23255 -3.55668,10.7344 -10.4386,4.34892 z"
     transform="matrix(0.96592585,-0.25881905,0.25881905,0.96592585,-5.1952455,95.697985)" /><flowRoot
     xml:space="preserve"
     id="flowRoot4261-7-3"
     style="font-style:normal;font-weight:normal;font-size:40px;line-height:125%;font-family:sans-serif;letter-spacing:0px;word-spacing:0px;fill:#e3dbdb;fill-opacity:1;stroke:none;stroke-width:1px;stroke-linecap:butt;stroke-linejoin:miter;stroke-opacity:1"
     transform="matrix(1.210258,-0.32428767,0.38945524,1.4534667,411.9549,-86.05584)"><flowRegion
       id="flowRegion4263-7-7"><rect
         id="rect4265-2-8"
         width="396.9697"
         height="144.44444"
         x="-647.47473"
         y="50.505051"
         style="fill:#e3dbdb" /></flowRegion><flowPara
       id="flowPara4267-6-8"
       style="font-style:normal;font-variant:normal;font-weight:bold;font-stretch:normal;font-family:serif;-inkscape-font-specification:'serif Bold';fill:#e3dbdb">Class</flowPara></flowRoot><path
     sodipodi:type="star"
     style="fill:#aa0000;fill-opacity:1;stroke:#000000;stroke-width:5;stroke-miterlimit:4;stroke-dasharray:none;stroke-opacity:1"
     id="path4216-0-0-7"
     sodipodi:sides="21"
     sodipodi:cx="-314.72876"
     sodipodi:cy="79.292931"
     sodipodi:r1="72.950668"
     sodipodi:r2="69.027634"
     sodipodi:arg1="1.0471976"
     sodipodi:arg2="1.1967973"
     inkscape:flatsided="false"
     inkscape:rounded="0"
     inkscape:randomized="0"
     d="m -278.25343,142.47006 -11.25671,1.07889 -8.98557,6.86562 -11.07462,-2.28702 -10.61004,3.91206 -9.90849,-5.44971 -11.29177,0.61089 -7.86195,-8.12818 -10.97018,-2.74455 -5.11684,-10.08442 -9.67383,-5.85614 -1.91708,-11.14461 -7.51793,-8.44738 1.45303,-11.214551 -4.69402,-10.288032 4.69402,-10.288038 -1.45302,-11.214549 7.51792,-8.447383 1.91708,-11.144604 9.67384,-5.856142 5.11684,-10.084412 10.97018,-2.744556 7.86194,-8.128176 11.29178,0.610895 9.90848,-5.4497151 10.61006,3.9120661 11.0746,-2.2870244 8.98558,6.8656324 11.25671,1.078879 6.56269,9.209158 10.4386,4.348919 3.55668,10.734409 8.69297,7.232539 0.23465,11.30586 6.17494,9.473516 -3.10824,10.872736 3.10824,10.87273 -6.17494,9.473522 -0.23465,11.305851 -8.69298,7.23255 -3.55668,10.7344 -10.4386,4.34892 z"
     transform="matrix(0.96592585,-0.25881905,0.25881905,0.96592585,333.18859,67.415157)" /><flowRoot
     xml:space="preserve"
     id="flowRoot4261-7-3-5"
     style="font-style:normal;font-weight:normal;font-size:40px;line-height:125%;font-family:sans-serif;letter-spacing:0px;word-spacing:0px;fill:#e3dbdb;fill-opacity:1;stroke:none;stroke-width:1px;stroke-linecap:butt;stroke-linejoin:miter;stroke-opacity:1"
     transform="matrix(4.1893094,-1.1225221,1.3480997,5.0311765,2619.515,-899.80091)"><flowRegion
       id="flowRegion4263-7-7-9"><rect
         id="rect4265-2-8-7"
         width="396.9697"
         height="144.44444"
         x="-647.47473"
         y="50.505051"
         style="fill:#e3dbdb" /></flowRegion><flowPara
       id="flowPara4267-6-8-8"
       style="font-style:normal;font-variant:normal;font-weight:bold;font-stretch:normal;font-family:serif;-inkscape-font-specification:'serif Bold';fill:#e3dbdb">c</flowPara></flowRoot><flowRoot
     xml:space="preserve"
     id="flowRoot4261-7-3-53"
     style="font-style:normal;font-weight:normal;font-size:40px;line-height:125%;font-family:sans-serif;letter-spacing:0px;word-spacing:0px;fill:#e3dbdb;fill-opacity:1;stroke:none;stroke-width:1px;stroke-linecap:butt;stroke-linejoin:miter;stroke-opacity:1"
     transform="matrix(1.210258,-0.32428767,0.38945524,1.4534667,434.3126,-29.892465)"><flowRegion
       id="flowRegion4263-7-7-3"><rect
         id="rect4265-2-8-8"
         width="396.9697"
         height="144.44444"
         x="-647.47473"
         y="50.505051"
         style="fill:#e3dbdb" /></flowRegion><flowPara
       id="flowPara4267-6-8-3"
       style="font-style:normal;font-variant:normal;font-weight:bold;font-stretch:normal;font-family:serif;-inkscape-font-specification:'serif Bold';fill:#e3dbdb">App</flowPara></flowRoot><path
     sodipodi:type="star"
     style="fill:#aa0000;fill-opacity:1;stroke:#000000;stroke-width:5;stroke-miterlimit:4;stroke-dasharray:none;stroke-opacity:1"
     id="path4216-0-0-79"
     sodipodi:sides="21"
     sodipodi:cx="-314.72876"
     sodipodi:cy="79.292931"
     sodipodi:r1="72.950668"
     sodipodi:r2="69.027634"
     sodipodi:arg1="1.0471976"
     sodipodi:arg2="1.1967973"
     inkscape:flatsided="false"
     inkscape:rounded="0"
     inkscape:randomized="0"
     d="m -278.25343,142.47006 -11.25671,1.07889 -8.98557,6.86562 -11.07462,-2.28702 -10.61004,3.91206 -9.90849,-5.44971 -11.29177,0.61089 -7.86195,-8.12818 -10.97018,-2.74455 -5.11684,-10.08442 -9.67383,-5.85614 -1.91708,-11.14461 -7.51793,-8.44738 1.45303,-11.214551 -4.69402,-10.288032 4.69402,-10.288038 -1.45302,-11.214549 7.51792,-8.447383 1.91708,-11.144604 9.67384,-5.856142 5.11684,-10.084412 10.97018,-2.744556 7.86194,-8.128176 11.29178,0.610895 9.90848,-5.4497151 10.61006,3.9120661 11.0746,-2.2870244 8.98558,6.8656324 11.25671,1.078879 6.56269,9.209158 10.4386,4.348919 3.55668,10.734409 8.69297,7.232539 0.23465,11.30586 6.17494,9.473516 -3.10824,10.872736 3.10824,10.87273 -6.17494,9.473522 -0.23465,11.305851 -8.69298,7.23255 -3.55668,10.7344 -10.4386,4.34892 z"
     transform="matrix(0.96592585,-0.25881905,0.25881905,0.96592585,155.91586,208.8293)" /><flowRoot
     xml:space="preserve"
     id="flowRoot4261-7-3-3"
     style="font-style:normal;font-weight:normal;font-size:40px;line-height:125%;font-family:sans-serif;letter-spacing:0px;word-spacing:0px;fill:#e3dbdb;fill-opacity:1;stroke:none;stroke-width:1px;stroke-linecap:butt;stroke-linejoin:miter;stroke-opacity:1"
     transform="matrix(1.210258,-0.32428767,0.38945524,1.4534667,573.06603,31.115877)"><flowRegion
       id="flowRegion4263-7-7-7"><rect
         id="rect4265-2-8-87"
         width="396.9697"
         height="144.44444"
         x="-647.47473"
         y="50.505051"
         style="fill:#e3dbdb" /></flowRegion><flowPara
       id="flowPara4267-6-8-4"
       style="font-style:normal;font-variant:normal;font-weight:bold;font-stretch:normal;font-family:serif;-inkscape-font-specification:'serif Bold';fill:#e3dbdb">Class</flowPara></flowRoot><flowRoot
     xml:space="preserve"
     id="flowRoot4261-7-3-53-1"
     style="font-style:normal;font-weight:normal;font-size:40px;line-height:125%;font-family:sans-serif;letter-spacing:0px;word-spacing:0px;fill:#e3dbdb;fill-opacity:1;stroke:none;stroke-width:1px;stroke-linecap:butt;stroke-linejoin:miter;stroke-opacity:1"
     transform="matrix(1.210258,-0.32428767,0.38945524,1.4534667,593.40353,70.107527)"><flowRegion
       id="flowRegion4263-7-7-3-9"><rect
         id="rect4265-2-8-8-0"
         width="396.9697"
         height="144.44444"
         x="-647.47473"
         y="50.505051"
         style="fill:#e3dbdb" /></flowRegion><flowPara
       id="flowPara4267-6-8-3-9"
       style="font-style:normal;font-variant:normal;font-weight:bold;font-stretch:normal;font-family:serif;-inkscape-font-specification:'serif Bold';fill:#e3dbdb">App</flowPara></flowRoot><path
     sodipodi:type="star"
     style="fill:#aa0000;fill-opacity:1;stroke:none;stroke-width:5;stroke-miterlimit:4;stroke-dasharray:none;stroke-opacity:1"
     id="path4216-0-0-7-8"
     sodipodi:sides="21"
     sodipodi:cx="-314.72876"
     sodipodi:cy="79.292931"
     sodipodi:r1="72.950668"
     sodipodi:r2="69.027634"
     sodipodi:arg1="1.0471976"
     sodipodi:arg2="1.1967973"
     inkscape:flatsided="false"
     inkscape:rounded="0"
     inkscape:randomized="0"
     d="m -278.25343,142.47006 -11.25671,1.07889 -8.98557,6.86562 -11.07462,-2.28702 -10.61004,3.91206 -9.90849,-5.44971 -11.29177,0.61089 -7.86195,-8.12818 -10.97018,-2.74455 -5.11684,-10.08442 -9.67383,-5.85614 -1.91708,-11.14461 -7.51793,-8.44738 1.45303,-11.214551 -4.69402,-10.288032 4.69402,-10.288038 -1.45302,-11.214549 7.51792,-8.447383 1.91708,-11.144604 9.67384,-5.856142 5.11684,-10.084412 10.97018,-2.744556 7.86194,-8.128176 11.29178,0.610895 9.90848,-5.4497151 10.61006,3.9120661 11.0746,-2.2870244 8.98558,6.8656324 11.25671,1.078879 6.56269,9.209158 10.4386,4.348919 3.55668,10.734409 8.69297,7.232539 0.23465,11.30586 6.17494,9.473516 -3.10824,10.872736 3.10824,10.87273 -6.17494,9.473522 -0.23465,11.305851 -8.69298,7.23255 -3.55668,10.7344 -10.4386,4.34892 z"
     transform="matrix(0.96592585,-0.25881905,0.25881905,0.96592585,356.42092,246.70809)" /><flowRoot
     xml:space="preserve"
     id="flowRoot4261-7-3-5-8"
     style="font-style:normal;font-weight:normal;font-size:40px;line-height:125%;font-family:sans-serif;letter-spacing:0px;word-spacing:0px;fill:#e3dbdb;fill-opacity:1;stroke:none;stroke-width:1px;stroke-linecap:butt;stroke-linejoin:miter;stroke-opacity:1"
     transform="matrix(4.1893094,-1.1225221,1.3480997,5.0311765,2642.7473,-720.50798)"><flowRegion
       id="flowRegion4263-7-7-9-5"><rect
         id="rect4265-2-8-7-8"
         width="396.9697"
         height="144.44444"
         x="-647.47473"
         y="50.505051"
         style="fill:#e3dbdb" /></flowRegion><flowPara
       id="flowPara4267-6-8-8-4"
       style="font-style:normal;font-variant:normal;font-weight:bold;font-stretch:normal;font-family:serif;-inkscape-font-specification:'serif Bold';fill:#e3dbdb">c</flowPara></flowRoot><path
     style="fill:#ffffff;stroke:none"
     d="m -481.31059,396.95953 0,-71.04472 c 0,0 34.84915,15.31996 52.83183,21.15071 18.4392,5.97878 37.48621,9.93568 56.41806,14.10049 18.87658,4.15266 47.73835,9.76187 56.96054,10.84651 10.23654,1.20397 28.56725,0.90387 42.85603,1.08467 8.85982,0.11208 17.74777,0.68742 26.58158,0 15.1458,-1.1786 30.30357,-3.3047 45.02594,-7.05024 13.02576,-3.31389 25.59456,-8.32363 37.97371,-13.55816 11.69358,-4.94464 22.81676,-11.14239 34.17631,-16.81211 13.96419,-6.96975 27.06476,-15.24605 40.926545,-22.41721 12.71566,-6.57826 25.3715,-13.88449 38.81822,-18.7996 9.56046,-3.49457 21.48599,-5.45999 31.52559,-7.14116 12.2109299,-2.04477 35.90056,-3.70535 35.90056,-3.70535 l 0,50.97865 c 0,0 -30.04579,-8.84999 -45.1844,-9.21953 -27.99651,-0.68343 -56.16671,5.00155 -82.999665,13.01582 -18.0673,5.39621 -34.44563,15.35415 -51.53572,23.32002 -22.72391,10.59187 -44.70344,22.81062 -67.81018,32.53959 -15.0779,6.34847 -30.25399,12.78489 -46.11091,16.81211 -16.65615,4.23021 -33.83561,6.61912 -50.99324,7.59256 -26.19337,1.48606 -52.67692,0.91946 -78.65979,-2.71163 -26.01742,-3.63591 -76.70101,-18.98142 -76.70101,-18.98142 z"
     id="path3183"
     inkscape:connector-curvature="0"
     sodipodi:nodetypes="ccsssssssssssccsssssssc" /><path
     style="fill:#e3dbdb;fill-opacity:1;stroke:none"
     d="m -358.73261,270.53498 0,-21.96799 c 0,0 9.67017,4.73712 14.66013,6.54008 5.11665,1.84872 10.40194,3.07227 15.65527,4.36005 5.238,1.28409 13.24676,3.01853 15.8058,3.35392 2.84049,0.37227 7.92705,0.2795 11.892,0.33538 2.45847,0.0349 4.92476,0.21255 7.37603,0 4.20277,-0.36442 8.40885,-1.02187 12.4941,-2.18004 3.61449,-1.02467 7.10217,-2.57377 10.53723,-4.19236 3.24481,-1.52894 6.33134,-3.44539 9.48347,-5.19852 3.87488,-2.15517 7.51012,-4.71431 11.35658,-6.93174 3.52843,-2.03407 7.04026,-4.29326 10.77155,-5.81309 2.65291,-1.08055 5.96208,-1.6883 8.74792,-2.20814 3.38838,-0.63228 9.96196,-1.14574 9.96196,-1.14574 l 0,15.7633 c 0,0 -8.33734,-2.73654 -12.5381,-2.85083 -7.76865,-0.2113 -15.58551,1.54657 -23.03131,4.0247 -5.01345,1.6686 -9.55821,4.74771 -14.30048,7.21087 -6.3056,3.27517 -12.40463,7.05335 -18.81645,10.06168 -4.18391,1.96305 -8.39506,3.95327 -12.79516,5.19856 -4.62186,1.30801 -9.38895,2.0467 -14.14996,2.34769 -7.26832,0.45954 -14.61717,0.28435 -21.82706,-0.83846 -7.21952,-1.12426 -21.28352,-5.86932 -21.28352,-5.86932 z"
     id="path3183-3"
     inkscape:connector-curvature="0"
     sodipodi:nodetypes="ccsssssssssssccsssssssc" /><g
     id="g5267"
     inkscape:export-xdpi="90"
     inkscape:export-ydpi="90"><path
       transform="matrix(0.99179432,-0.26575048,0.26575048,0.99179432,6.4427602,351.57195)"
       d="m -278.25343,142.47006 -11.25671,1.07889 -8.98557,6.86562 -11.07462,-2.28702 -10.61004,3.91206 -9.90849,-5.44971 -11.29177,0.61089 -7.86195,-8.12818 -10.97018,-2.74455 -5.11684,-10.08442 -9.67383,-5.85614 -1.91708,-11.14461 -7.51793,-8.44738 1.45303,-11.214551 -4.69402,-10.288032 4.69402,-10.288038 -1.45302,-11.214549 7.51792,-8.447383 1.91708,-11.144604 9.67384,-5.856142 5.11684,-10.084412 10.97018,-2.744556 7.86194,-8.128176 11.29178,0.610895 9.90848,-5.4497151 10.61006,3.9120661 11.0746,-2.2870244 8.98558,6.8656324 11.25671,1.078879 6.56269,9.209158 10.4386,4.348919 3.55668,10.734409 8.69297,7.232539 0.23465,11.30586 6.17494,9.473516 -3.10824,10.872736 3.10824,10.87273 -6.17494,9.473522 -0.23465,11.305851 -8.69298,7.23255 -3.55668,10.7344 -10.4386,4.34892 z"
       inkscape:randomized="0"
       inkscape:rounded="0"
       inkscape:flatsided="false"
       sodipodi:arg2="1.1967973"
       sodipodi:arg1="1.0471976"
       sodipodi:r2="69.027634"
       sodipodi:r1="72.950668"
       sodipodi:cy="79.292931"
       sodipodi:cx="-314.72876"
       sodipodi:sides="21"
       id="path4216-0-0-4-1"
       style="fill:#000000;fill-opacity:1;stroke:#000000;stroke-width:5;stroke-miterlimit:4;stroke-dasharray:none;stroke-opacity:1"
       sodipodi:type="star" /><circle
       r="68.686867"
       cy="510.12637"
       cx="-281.52234"
       id="path5241"
       style="fill:#aa0000;fill-opacity:1;stroke:none;stroke-width:10;stroke-miterlimit:4;stroke-dasharray:none;stroke-opacity:1" /><flowRoot
       transform="matrix(4.1893094,-1.1225221,1.3480997,5.0311765,2288.2017,-617.98268)"
       style="font-style:normal;font-weight:normal;font-size:40px;line-height:125%;font-family:sans-serif;letter-spacing:0px;word-spacing:0px;fill:#e3dbdb;fill-opacity:1;stroke:none;stroke-width:1px;stroke-linecap:butt;stroke-linejoin:miter;stroke-opacity:1"
       id="flowRoot4261-7-3-5-8-7"
       xml:space="preserve"><flowRegion
         id="flowRegion4263-7-7-9-5-4"><rect
           style="fill:#e3dbdb"
           y="50.505051"
           x="-647.47473"
           height="144.44444"
           width="396.9697"
           id="rect4265-2-8-7-8-1" /></flowRegion><flowPara
         style="font-style:normal;font-variant:normal;font-weight:bold;font-stretch:normal;font-family:serif;-inkscape-font-specification:'serif Bold';fill:#e3dbdb"
         id="flowPara4267-6-8-8-4-7">c</flowPara></flowRoot></g></svg>